<svg xmlns="http://www.w3.org/2000/svg" fill-rule="evenodd" stroke-linejoin="round" stroke-miterlimit="2" clip-rule="evenodd" viewBox="0 0 48 48" id="web-development-security" width="40"   
  height="20"><path d="M32,25c-5.519,0 -10,4.481 -10,10c0,5.519 4.481,10 10,10c5.519,0 10,-4.481 10,-10c0,-5.519 -4.481,-10 -10,-10Zm0,2c4.415,0 8,3.585 8,8c0,4.415 -3.585,8 -8,8c-4.415,0 -8,-3.585 -8,-8c0,-4.415 3.585,-8 8,-8Zm-4,6.765c-0.614,0.549 -1,1.347 -1,2.235c0,0 0,2 0,2c0,1.656 1.344,3 3,3l4,0c1.656,0 3,-1.344 3,-3c0,-0 0,-2 0,-2c0,-0.888 -0.386,-1.686 -1,-2.235l0,-0.765c0,-2.208 -1.792,-4 -4,-4c-2.208,0 -4,1.792 -4,4l0,0.765Zm-20,-22.765l11.382,-0l4,-8l-14.382,0c-1.656,0 -3,1.344 -3,3c0,0 0,26 0,26c0,1.656 1.344,3 3,3l11,0c0.552,0 1,-0.448 1,-1c0,-0.552 -0.448,-1 -1,-1l-11,0c-0.552,0 -1,-0.448 -1,-1l0,-21Zm26,21.987c-0.007,-1.098 -0.9,-1.987 -2,-1.987c-1.104,0 -2,0.896 -2,2l4,0l-0,-0.013Zm-23,-1.987l9,0c0.552,0 1,-0.448 1,-1c0,-0.552 -0.448,-1 -1,-1l-9,0c-0.552,0 -1,0.448 -1,1c0,0.552 0.448,1 1,1Zm-0,-4l12,0c0.552,-0 1,-0.448 1,-1c0,-0.552 -0.448,-1 -1,-1l-12,0c-0.552,-0 -1,0.448 -1,1c-0,0.552 0.448,1 1,1Zm22,-24l-7.382,0l-4,8l12.382,-0l0,12c0,0.552 0.448,1 1,1c0.552,-0 1,-0.448 1,-1l0,-17c0,-1.656 -1.344,-3 -3,-3Zm-22,20l20,0c0.552,0 1,-0.448 1,-1c0,-0.552 -0.448,-1 -1,-1l-20,0c-0.552,0 -1,0.448 -1,1c0,0.552 0.448,1 1,1Zm14,-4l6,0c0.552,0 1,-0.448 1,-1c0,-0.552 -0.448,-1 -1,-1l-6,0c-0.552,0 -1,0.448 -1,1c0,0.552 0.448,1 1,1Zm-5.293,-0.293l2,-2c0.391,-0.39 0.391,-1.024 0,-1.414l-2,-2c-0.39,-0.39 -1.024,-0.39 -1.414,-0c-0.39,0.39 -0.39,1.024 -0,1.414l1.293,1.293c-0,-0 -1.293,1.293 -1.293,1.293c-0.39,0.39 -0.39,1.024 -0,1.414c0.39,0.39 1.024,0.39 1.414,0Zm-6,-1.414l-1.293,-1.293c0,0 1.293,-1.293 1.293,-1.293c0.39,-0.39 0.39,-1.024 0,-1.414c-0.39,-0.39 -1.024,-0.39 -1.414,-0l-2,2c-0.391,0.39 -0.391,1.024 -0,1.414l2,2c0.39,0.39 1.024,0.39 1.414,0c0.39,-0.39 0.39,-1.024 0,-1.414Zm1.927,-2.659l-1,1.732c-0.276,0.478 -0.112,1.09 0.366,1.366c0.478,0.276 1.09,0.112 1.366,-0.366l1,-1.732c0.276,-0.478 0.112,-1.09 -0.366,-1.366c-0.478,-0.276 -1.09,-0.112 -1.366,0.366Zm9.366,0.366l6,0c0.552,0 1,-0.448 1,-1c0,-0.552 -0.448,-1 -1,-1l-6,0c-0.552,0 -1,0.448 -1,1c0,0.552 0.448,1 1,1Zm4,-9c-0.552,-0 -1,0.448 -1,1c-0,0.552 0.448,1 1,1c0.552,-0 1,-0.448 1,-1c-0,-0.552 -0.448,-1 -1,-1Zm-3,-0c-0.552,-0 -1,0.448 -1,1c0,0.552 0.448,1 1,1c0.552,-0 1,-0.448 1,-1c0,-0.552 -0.448,-1 -1,-1Zm6,-0c-0.552,-0 -1,0.448 -1,1c0,0.552 0.448,1 1,1c0.552,-0 1,-0.448 1,-1c0,-0.552 -0.448,-1 -1,-1Z"></path></svg>