<svg xmlns="http://www.w3.org/2000/svg" enable-background="new 0 0 100 100" viewBox="0 0 100 100" id="ux-roadmap" width="40"   
  height="20"><path d="M88.4,23.2l-11.5-5.6c-0.4-0.2-0.8-0.2-1.2,0.1c-0.4,0.2-0.6,0.6-0.6,1.1v11.1V34c-2.4,0.6-4.2,2.7-4.2,5.3s1.8,4.8,4.2,5.3v8.5c-2.4,0.6-4.2,2.7-4.2,5.3s1.8,4.8,4.2,5.3v8.5c-2,0.5-3.6,2.1-4.1,4.1h-7.3c-0.6-2.4-2.7-4.2-5.3-4.2s-4.8,1.8-5.3,4.2h-7.3c-0.6-2.4-2.7-4.2-5.3-4.2s-4.8,1.8-5.3,4.2h-7.3c-0.5-2-2.1-3.6-4.1-4.1v-8.5c2-0.5,3.6-2.1,4.1-4.1H35c0.6,2.4,2.7,4.2,5.3,4.2s4.8-1.8,5.3-4.2H53c0.6,2.4,2.7,4.2,5.3,4.2c3,0,5.5-2.5,5.5-5.5c0-2.6-1.8-4.8-4.2-5.3v-8.5c2.4-0.6,4.2-2.7,4.2-5.3c0-3-2.5-5.5-5.5-5.5c-2.6,0-4.8,1.8-5.3,4.2h-7.3c-0.6-2.4-2.7-4.2-5.3-4.2s-4.8,1.8-5.3,4.2h-7.3c-0.5-2-2.1-3.6-4.1-4.1v-3.9l10.8-5.2c0.4-0.2,0.7-0.6,0.7-1.1s-0.3-0.9-0.7-1.1L23,17c-0.4-0.2-0.8-0.2-1.2,0.1c-0.4,0.2-0.6,0.6-0.6,1.1v11.1V34c-2.4,0.6-4.2,2.7-4.2,5.3c0,3,2.5,5.5,5.5,5.5c2.6,0,4.8-1.8,5.3-4.2H35c0.6,2.4,2.7,4.2,5.3,4.2s4.8-1.8,5.3-4.2H53c0.5,2,2.1,3.6,4.1,4.1v8.5c-2,0.5-3.6,2.1-4.1,4.1h-7.3C45.2,54.8,43,53,40.4,53s-4.8,1.8-5.3,4.2h-7.3C27.2,54.8,25,53,22.4,53c-3,0-5.5,2.5-5.5,5.5c0,2.6,1.8,4.8,4.2,5.3v8.5c-2.4,0.6-4.2,2.7-4.2,5.3c0,3,2.5,5.5,5.5,5.5c2.6,0,4.8-1.8,5.3-4.2H35c0.6,2.4,2.7,4.2,5.3,4.2s4.8-1.8,5.3-4.2H53c0.6,2.4,2.7,4.2,5.3,4.2s4.8-1.8,5.3-4.2H71c0.6,2.4,2.7,4.2,5.3,4.2c3,0,5.5-2.5,5.5-5.5c0-2.6-1.8-4.8-4.2-5.3v-8.5c2.4-0.6,4.2-2.7,4.2-5.3s-1.8-4.8-4.2-5.3v-8.5c2.4-0.6,4.2-2.7,4.2-5.3s-1.8-4.8-4.2-5.3v-3.3l10.8-5.2c0.4-0.2,0.7-0.6,0.7-1.1S88.8,23.4,88.4,23.2z M23.7,20.2l7.4,3.6l-7.4,3.6V20.2z M25.1,40.6c-0.5,1-1.5,1.7-2.7,1.7c-1.6,0-3-1.3-3-3c0-1.2,0.7-2.2,1.7-2.7c0.4-0.2,0.8-0.3,1.2-0.3c0.4,0,0.9,0.1,1.2,0.3c0.6,0.3,1.2,0.8,1.5,1.5c0.2,0.4,0.3,0.8,0.3,1.2C25.4,39.8,25.3,40.2,25.1,40.6z M43.1,40.6c-0.5,1-1.5,1.7-2.7,1.7s-2.2-0.7-2.7-1.7c-0.2-0.4-0.3-0.8-0.3-1.2s0.1-0.9,0.3-1.2c0.5-1,1.5-1.7,2.7-1.7s2.2,0.7,2.7,1.7c0.2,0.4,0.3,0.8,0.3,1.2C43.4,39.8,43.3,40.2,43.1,40.6z M55.7,40.6c-0.2-0.4-0.3-0.8-0.3-1.2s0.1-0.9,0.3-1.2c0.5-1,1.5-1.7,2.7-1.7c1.6,0,3,1.3,3,3c0,1.2-0.7,2.2-1.7,2.7c-0.4,0.2-0.8,0.3-1.2,0.3s-0.9-0.1-1.2-0.3C56.5,41.7,56,41.2,55.7,40.6z M55.7,57.2c0.3-0.6,0.8-1.2,1.5-1.5c0.4-0.2,0.8-0.3,1.2-0.3s0.9,0.1,1.2,0.3c1,0.5,1.7,1.5,1.7,2.7c0,1.6-1.3,3-3,3c-1.2,0-2.2-0.7-2.7-1.7c-0.2-0.4-0.3-0.8-0.3-1.2C55.4,58,55.5,57.6,55.7,57.2z M37.7,57.2c0.5-1,1.5-1.7,2.7-1.7s2.2,0.7,2.7,1.7c0.2,0.4,0.3,0.8,0.3,1.2s-0.1,0.9-0.3,1.2c-0.5,1-1.5,1.7-2.7,1.7s-2.2-0.7-2.7-1.7c-0.2-0.4-0.3-0.8-0.3-1.2S37.5,57.6,37.7,57.2z M19.4,58.4c0-1.6,1.3-3,3-3c1.2,0,2.2,0.7,2.7,1.7c0.2,0.4,0.3,0.8,0.3,1.2s-0.1,0.9-0.3,1.2c-0.3,0.6-0.8,1.2-1.5,1.5c-0.4,0.2-0.8,0.3-1.2,0.3c-0.4,0-0.9-0.1-1.2-0.3C20.1,60.7,19.4,59.7,19.4,58.4z M25.1,78.8c-0.5,1-1.5,1.7-2.7,1.7c-1.6,0-3-1.3-3-3c0-1.2,0.7-2.2,1.7-2.7c0.4-0.2,0.8-0.3,1.2-0.3c0.4,0,0.9,0.1,1.2,0.3c0.6,0.3,1.2,0.8,1.5,1.5c0.2,0.4,0.3,0.8,0.3,1.2S25.3,78.5,25.1,78.8z M43.1,78.8c-0.5,1-1.5,1.7-2.7,1.7s-2.2-0.7-2.7-1.7c-0.2-0.4-0.3-0.8-0.3-1.2s0.1-0.9,0.3-1.2c0.5-1,1.5-1.7,2.7-1.7s2.2,0.7,2.7,1.7c0.2,0.4,0.3,0.8,0.3,1.2S43.3,78.5,43.1,78.8z M61.1,78.8c-0.5,1-1.5,1.7-2.7,1.7s-2.2-0.7-2.7-1.7c-0.2-0.4-0.3-0.8-0.3-1.2s0.1-0.9,0.3-1.2c0.5-1,1.5-1.7,2.7-1.7s2.2,0.7,2.7,1.7c0.2,0.4,0.3,0.8,0.3,1.2S61.3,78.5,61.1,78.8z M79.3,77.6c0,1.6-1.3,3-3,3c-1.2,0-2.2-0.7-2.7-1.7c-0.2-0.4-0.3-0.8-0.3-1.2s0.1-0.9,0.3-1.2c0.3-0.6,0.8-1.2,1.5-1.5c0.4-0.2,0.8-0.3,1.2-0.3s0.9,0.1,1.2,0.3C78.6,75.4,79.3,76.4,79.3,77.6z M79.3,58.4c0,1.2-0.7,2.2-1.7,2.7c-0.4,0.2-0.8,0.3-1.2,0.3s-0.9-0.1-1.2-0.3c-1-0.5-1.7-1.5-1.7-2.7s0.7-2.2,1.7-2.7c0.4-0.2,0.8-0.3,1.2-0.3s0.9,0.1,1.2,0.3C78.6,56.2,79.3,57.2,79.3,58.4z M79.3,39.3c0,1.2-0.7,2.2-1.7,2.7c-0.4,0.2-0.8,0.3-1.2,0.3s-0.9-0.1-1.2-0.3c-1-0.5-1.7-1.5-1.7-2.7s0.7-2.2,1.7-2.7c0.4-0.2,0.8-0.3,1.2-0.3s0.9,0.1,1.2,0.3C78.6,37.1,79.3,38.1,79.3,39.3z M77.6,27.9v-7.1l7.4,3.6L77.6,27.9z"></path></svg>